REM DIRINDEX 1\2,1\3,1\4,1\5
REM DIRNAME cjc093,folder01,folder02,folder03,folder04
TITLE ""
FILE "Round-07-148-149.mp3" MP3
  TRACK 01 AUDIO
    TITLE "0:"
    INDEX 01 00:00:00
  TRACK 02 AUDIO
    TITLE "5:cjc093_1658"
    INDEX 01 00:00:05
  TRACK 03 AUDIO
    TITLE "0:"
    INDEX 01 00:01:36
  TRACK 04 AUDIO
    TITLE "2:cjc093_1659"
    INDEX 01 00:02:14
  TRACK 05 AUDIO
    TITLE "0:"
    INDEX 01 00:03:35
  TRACK 06 AUDIO
    TITLE "3:cjc093_1660"
    INDEX 01 00:04:07
  TRACK 07 AUDIO
    TITLE "0:"
    INDEX 01 00:05:73
  TRACK 08 AUDIO
    TITLE "4:cjc093_1661"
    INDEX 01 00:06:26
  TRACK 09 AUDIO
    TITLE "0:"
    INDEX 01 00:09:28
  TRACK 10 AUDIO
    TITLE "2:cjc093_1662"
    INDEX 01 00:10:39
  TRACK 11 AUDIO
    TITLE "0:"
    INDEX 01 00:12:30
  TRACK 12 AUDIO
    TITLE "3:cjc093_1663"
    INDEX 01 00:12:67
  TRACK 13 AUDIO
    TITLE "0:"
    INDEX 01 00:14:35
  TRACK 14 AUDIO
    TITLE "4:cjc093_1664"
    INDEX 01 00:14:62
  TRACK 15 AUDIO
    TITLE "0:"
    INDEX 01 00:18:46
  TRACK 16 AUDIO
    TITLE "2:cjc093_1665"
    INDEX 01 00:19:54
  TRACK 17 AUDIO
    TITLE "0:"
    INDEX 01 00:20:57
  TRACK 18 AUDIO
    TITLE "3:cjc093_1666"
    INDEX 01 00:21:06
  TRACK 19 AUDIO
    TITLE "0:"
    INDEX 01 00:23:14
  TRACK 20 AUDIO
    TITLE "4:cjc093_1667"
    INDEX 01 00:23:51
  TRACK 21 AUDIO
    TITLE "0:"
    INDEX 01 00:25:54
  TRACK 22 AUDIO
    TITLE "3:cjc093_1668"
    INDEX 01 00:26:56
  TRACK 23 AUDIO
    TITLE "0:"
    INDEX 01 00:28:37
  TRACK 24 AUDIO
    TITLE "4:cjc093_1669"
    INDEX 01 00:29:09
  TRACK 25 AUDIO
    TITLE "0:"
    INDEX 01 00:32:43
  TRACK 26 AUDIO
    TITLE "2:cjc093_1670"
    INDEX 01 00:33:56
  TRACK 27 AUDIO
    TITLE "0:"
    INDEX 01 00:34:71
  TRACK 28 AUDIO
    TITLE "3:cjc093_1671"
    INDEX 01 00:35:19
  TRACK 29 AUDIO
    TITLE "0:"
    INDEX 01 00:36:27
  TRACK 30 AUDIO
    TITLE "4:cjc093_1672"
    INDEX 01 00:37:24
  TRACK 31 AUDIO
    TITLE "0:"
    INDEX 01 00:40:38
  TRACK 32 AUDIO
    TITLE "2:cjc093_1673"
    INDEX 01 00:41:45
  TRACK 33 AUDIO
    TITLE "0:"
    INDEX 01 00:42:74
  TRACK 34 AUDIO
    TITLE "3:cjc093_1674"
    INDEX 01 00:43:40
  TRACK 35 AUDIO
    TITLE "0:"
    INDEX 01 00:45:59
  TRACK 36 AUDIO
    TITLE "4:cjc093_1675"
    INDEX 01 00:46:19
  TRACK 37 AUDIO
    TITLE "0:"
    INDEX 01 00:51:28
  TRACK 38 AUDIO
    TITLE "2:cjc093_1676"
    INDEX 01 00:52:43
  TRACK 39 AUDIO
    TITLE "0:"
    INDEX 01 00:53:51
  TRACK 40 AUDIO
    TITLE "3:cjc093_1677"
    INDEX 01 00:54:09
  TRACK 41 AUDIO
    TITLE "0:"
    INDEX 01 00:55:18
  TRACK 42 AUDIO
    TITLE "4:cjc093_1678"
    INDEX 01 00:55:65
  TRACK 43 AUDIO
    TITLE "0:"
    INDEX 01 00:59:39
  TRACK 44 AUDIO
    TITLE "2:cjc093_1679"
    INDEX 01 01:00:51
  TRACK 45 AUDIO
    TITLE "0:"
    INDEX 01 01:01:58
  TRACK 46 AUDIO
    TITLE "3:cjc093_1680"
    INDEX 01 01:02:06
  TRACK 47 AUDIO
    TITLE "0:"
    INDEX 01 01:03:51
  TRACK 48 AUDIO
    TITLE "4:cjc093_1681"
    INDEX 01 01:04:27
  TRACK 49 AUDIO
    TITLE "0:"
    INDEX 01 01:08:05
  TRACK 50 AUDIO
    TITLE "2:cjc093_1682"
    INDEX 01 01:09:16
  TRACK 51 AUDIO
    TITLE "0:"
    INDEX 01 01:10:24
  TRACK 52 AUDIO
    TITLE "3:cjc093_1683"
    INDEX 01 01:10:55
  TRACK 53 AUDIO
    TITLE "0:"
    INDEX 01 01:11:62
  TRACK 54 AUDIO
    TITLE "4:cjc093_1684"
    INDEX 01 01:12:23
  TRACK 55 AUDIO
    TITLE "0:"
    INDEX 01 01:15:33
  TRACK 56 AUDIO
    TITLE "2:cjc093_1685"
    INDEX 01 01:16:42
  TRACK 57 AUDIO
    TITLE "0:"
    INDEX 01 01:17:49
  TRACK 58 AUDIO
    TITLE "3:cjc093_1686"
    INDEX 01 01:17:53
  TRACK 59 AUDIO
    TITLE "0:"
    INDEX 01 01:18:54
  TRACK 60 AUDIO
    TITLE "4:cjc093_1687"
    INDEX 01 01:19:07
  TRACK 61 AUDIO
    TITLE "0:"
    INDEX 01 01:21:59
  TRACK 62 AUDIO
    TITLE "2:cjc093_1688"
    INDEX 01 01:22:68
  TRACK 63 AUDIO
    TITLE "0:"
    INDEX 01 01:24:00
  TRACK 64 AUDIO
    TITLE "3:cjc093_1689"
    INDEX 01 01:24:24
  TRACK 65 AUDIO
    TITLE "0:"
    INDEX 01 01:25:39
  TRACK 66 AUDIO
    TITLE "4:cjc093_1690"
    INDEX 01 01:25:64
  TRACK 67 AUDIO
    TITLE "0:"
    INDEX 01 01:28:18
